<svg xmlns="http://www.w3.org/2000/svg" width="1400" height="440" viewBox="0 0 1400 440" role="img" aria-labelledby="title desc">
  <title id="title">Quantum-enabled DHFR drug-resistance analysis</title><desc id="desc">A molecular network transitions through a quantum circuit to an energy result.</desc>
  <defs><linearGradient id="bg" x1="0" x2="1"><stop stop-color="#071c35"/><stop offset="1" stop-color="#123f5f"/></linearGradient><filter id="g"><feGaussianBlur stdDeviation="10"/></filter></defs>
  <rect width="1400" height="440" fill="url(#bg)"/><g fill="#61d5c7" opacity=".25" filter="url(#g)"><circle cx="200" cy="135" r="100"/><circle cx="1160" cy="300" r="130"/></g>
  <g stroke="#61d5c7" stroke-width="3" fill="none" opacity=".9"><path d="M90 295L180 180 285 275 375 145 465 250"/><circle cx="90" cy="295" r="13" fill="#61d5c7"/><circle cx="180" cy="180" r="13" fill="#61d5c7"/><circle cx="285" cy="275" r="13" fill="#61d5c7"/><circle cx="375" cy="145" r="13" fill="#61d5c7"/><circle cx="465" cy="250" r="13" fill="#61d5c7"/></g>
  <g transform="translate(825 112)" stroke="#ffd166" stroke-width="5" fill="none"><rect width="350" height="185" rx="18"/><path d="M45 42h70m35 0h70m35 0h50M45 92h70m35 0h70m35 0h50M45 142h70m35 0h70m35 0h50"/><circle cx="115" cy="42" r="12" fill="#ffd166"/><circle cx="220" cy="92" r="12" fill="#ffd166"/><circle cx="325" cy="142" r="12" fill="#ffd166"/></g>
  <text x="530" y="180" fill="white" font-family="Arial, sans-serif" font-size="42" font-weight="700">DHFR → active-space model → quantum measurement</text><text x="530" y="230" fill="#b9d9e8" font-family="Arial, sans-serif" font-size="24">Reproducible, finite-shot electronic-structure workflow</text><text x="530" y="275" fill="#61d5c7" font-family="Arial, sans-serif" font-size="18">Biology · computational chemistry · quantum computing</text>
</svg>
